<?xml version="1.0" encoding="UTF-8" standalone="no"?>
<!-- Created with Inkscape (http://www.inkscape.org/) -->

<svg
   width="100mm"
   height="100mm"
   viewBox="0 0 100 100"
   version="1.1"
   id="svg1"
   xml:space="preserve"
   sodipodi:docname="logo6.svg"
   inkscape:version="1.4.4 (dcaf3e7d9e, 2026-05-05)"
   xmlns:inkscape="http://www.inkscape.org/namespaces/inkscape"
   xmlns:sodipodi="http://sodipodi.sourceforge.net/DTD/sodipodi-0.dtd"
   xmlns:xlink="http://www.w3.org/1999/xlink"
   xmlns="http://www.w3.org/2000/svg"
   xmlns:svg="http://www.w3.org/2000/svg"><sodipodi:namedview
     id="namedview1"
     pagecolor="#ffffff"
     bordercolor="#000000"
     borderopacity="0.25"
     inkscape:showpageshadow="2"
     inkscape:pageopacity="0.0"
     inkscape:pagecheckerboard="0"
     inkscape:deskcolor="#d1d1d1"
     inkscape:document-units="mm"
     inkscape:zoom="11.683303"
     inkscape:cx="239.14469"
     inkscape:cy="69.629279"
     inkscape:window-width="1920"
     inkscape:window-height="1022"
     inkscape:window-x="0"
     inkscape:window-y="0"
     inkscape:window-maximized="1"
     inkscape:current-layer="layer1" /><defs
     id="defs1"><linearGradient
       inkscape:collect="always"
       id="linearGradient5562"><stop
         style="stop-color:#699ad7;stop-opacity:1"
         offset="0"
         id="stop5564" /><stop
         id="stop5566"
         offset="0.24345198"
         style="stop-color:#7eb1dd;stop-opacity:1" /><stop
         style="stop-color:#7ebae4;stop-opacity:1"
         offset="1"
         id="stop5568" /></linearGradient><linearGradient
       inkscape:collect="always"
       id="linearGradient5053"><stop
         style="stop-color:#415e9a;stop-opacity:1"
         offset="0"
         id="stop5055" /><stop
         id="stop5057"
         offset="0.23168644"
         style="stop-color:#4a6baf;stop-opacity:1" /><stop
         style="stop-color:#5277c3;stop-opacity:1"
         offset="1"
         id="stop5059" /></linearGradient><linearGradient
       inkscape:collect="always"
       xlink:href="#linearGradient5053"
       id="linearGradient5386"
       gradientUnits="userSpaceOnUse"
       gradientTransform="matrix(0.1696497,0,0,0.1696497,144.66444,-73.28831)"
       x1="-584.19934"
       y1="782.33563"
       x2="-496.29703"
       y2="937.71399" /><clipPath
       id="cliprect"><rect
         x="25"
         y="45"
         width="55"
         height="45"
         id="rect1" /></clipPath><linearGradient
       inkscape:collect="always"
       xlink:href="#linearGradient5562"
       id="linearGradient24"
       gradientUnits="userSpaceOnUse"
       gradientTransform="matrix(-0.16964978,0,0,0.16964978,74.280595,0.71106743)"
       x1="200.59668"
       y1="351.41116"
       x2="290.08701"
       y2="506.18814" /></defs><g
     inkscape:label="Layer 1"
     inkscape:groupmode="layer"
     id="layer1"><path
       sodipodi:nodetypes="cccccccccc"
       inkscape:connector-curvature="0"
       id="use3449-5"
       d="m 33.751498,59.2 -20.730665,35.910638 9.527031,0.08936 5.534588,-9.647845 5.574086,9.596285 4.733634,-0.0019 2.42444,-4.188582 -7.941385,-13.655129 5.637372,-9.810115 z"
       style="fill:url(#linearGradient24);fill-opacity:1;fill-rule:evenodd;stroke:none;stroke-width:0.508951;stroke-linecap:butt;stroke-linejoin:round;stroke-miterlimit:4;stroke-dasharray:none;stroke-opacity:1" /><path
       style="color:#000000;clip-rule:nonzero;display:inline;overflow:visible;visibility:visible;isolation:auto;mix-blend-mode:normal;color-interpolation:sRGB;color-interpolation-filters:linearRGB;solid-color:#000000;solid-opacity:1;fill:url(#linearGradient5386);fill-opacity:1;fill-rule:evenodd;stroke:none;stroke-width:0.508951;stroke-linecap:butt;stroke-linejoin:round;stroke-miterlimit:4;stroke-dasharray:none;stroke-dashoffset:0;stroke-opacity:1;color-rendering:auto;image-rendering:auto;shape-rendering:auto;text-rendering:auto;enable-background:accumulate"
       d="m 50.483946,59.2 20.730657,35.910618 -9.527029,0.08938 -5.534585,-9.647843 -5.574086,9.596284 -4.733629,-0.0019 -2.424441,-4.188584 7.941383,-13.655123 -5.637368,-9.810094 z"
       id="path4260-0"
       inkscape:connector-curvature="0"
       sodipodi:nodetypes="cccccccccc" /><g
       id="owl"
       style="display:inline;fill:none;stroke:#000000;stroke-width:0.8;stroke-linecap:butt;stroke-linejoin:miter;stroke-miterlimit:10.433"
       transform="matrix(1.4121615,0,0,-1.4121615,-10.013994,91.514086)"><path
         id="owl-outline"
         d="m 25.52,10.062 v 1.602 l 0.402,0.398 0.398,0.403 h 5.2 l 0.8,0.398 1.2,1.199 0.402,2 -0.801,2 -0.402,0.801 -0.797,0.801 -1.203,0.801 -2.797,1.199 -4,1.199 -2,-0.398 -2.402,-0.403 -2,-0.398 h -0.801 l -0.797,0.398 -0.403,0.403 v 0.398 l 0.403,0.801 0.797,1.199 2.801,4 4,5.602 1.601,2 2.399,2.801 2,2.398 2,1.602 2,1.597 2,0.801 1.601,0.801 h 2.801 l -0.801,1.199 -0.801,1.602 -0.398,1.199 0.398,2 0.399,1.597 1.203,2 0.398,1.204 0.399,1.199 -0.797,2.398 1.598,-0.801 2,-0.796 4,-0.403 4,-0.398 h 8 l 4,0.398 4,0.403 2.402,1.199 -0.801,-1.602 -0.801,-1.597 -0.398,-2.801 0.398,-2.801 v -2.398 l -0.8,-2.403 -1.598,-2.398 -1.602,-2 -1.199,-1.199 -2,-1.204 0.801,-1.199 0.398,-2.398 -0.398,-2.801 -0.801,-2.801 -1.601,-2.398 -1.598,-2 -2.402,-2 -2,-1.602 -2,-1.199 -3.598,-1.602 -2.801,-1.199 -3.601,-0.398 -0.801,-2 v -2 l 0.402,-1.199 0.801,-0.801 h 5.598 l 0.8,-0.801 v -1.602 m -28.8,12 v -6.796 l 0.8,-0.801 h 6.399 l 0.801,0.801 v 6.398 m 14,-3.199 -4,-0.801 -1.2,-0.801 -0.398,-1.597 v -2 l 0.398,-0.801 0.399,-0.403 h 0.402 l 0.801,0.801 0.398,1.602 -0.398,2.398 -0.402,0.801"
         style="fill:#ffffff;stroke-width:1.6" /><line
         id="owl-tail-l"
         x1="21.922001"
         y1="22.465"
         x2="21.922001"
         y2="16.465" /><line
         id="owl-tail-r"
         x1="25.52"
         y1="22.465"
         x2="25.52"
         y2="16.465" /><polyline
         id="owl-neck"
         points="39.922,46.465 41.52,45.664 43.52,44.863 46.32,44.465 48.32,44.062 51.121,42.863 52.32,42.062 55.52,40.465 61.121,40.062 " /><polyline
         id="owl-wing"
         points="23.922,22.863 27.121,24.062 31.52,25.664 35.121,27.266 41.922,31.266 43.52,32.465 48.32,36.465 51.52,39.664 52.32,40.863 52.32,42.062 " /><line
         id="owl-wing-r"
         x1="37.120998"
         y1="46.465"
         x2="42.719002"
         y2="36.465" /><polyline
         id="owl-wing-r1"
         points="38.719,43.266 37.922,44.062 35.922,43.664 30.719,37.664 " /><polyline
         id="owl-wing-r2"
         points="40.32,40.465 38.719,42.062 37.52,41.664 36.719,41.266 32.719,37.266 " /><polyline
         id="owl-wing-r3"
         points="41.52,38.465 40.719,39.266 39.52,39.664 37.922,38.863 35.52,36.465 " /><polyline
         id="owl-wing-r4"
         points="42.32,36.465 41.52,37.664 40.719,37.664 38.32,36.062 " /><line
         id="owl-wing-l"
         x1="24.719"
         y1="36.062"
         x2="35.52"
         y2="30.863001" /><polyline
         id="owl-wing-l1"
         points="29.121,33.664 27.52,34.062 26.719,33.664 24.719,31.664 " /><polyline
         id="owl-wing-l2"
         points="31.922,32.465 29.922,32.863 28.32,32.062 24.32,28.863 " /><polyline
         id="owl-wing-l3"
         points="35.52,30.863 33.121,31.266 29.922,30.062 23.52,25.266 " /><polyline
         id="owl-nose-r"
         points="53.52,41.266 53.52,44.465 53.922,46.062 54.719,47.266 55.52,48.062 57.52,49.266 " /><polyline
         id="owl-nose-l"
         points="53.52,44.465 53.121,46.062 52.32,47.266 51.52,48.062 49.52,49.266 " /><circle
         id="owl-eye-r"
         cx="59.52"
         cy="52.465"
         r="4" /><circle
         id="owl-pupil-r"
         cx="59.52"
         cy="52.465"
         r="2.4000001"
         style="fill:#000000;stroke:none" /><circle
         id="owl-pupil-highlight-r"
         cx="59.922001"
         cy="52.862999"
         r="1.2"
         style="fill:#ffffff;stroke:none" /><circle
         id="owl-eye-l"
         cx="47.52"
         cy="52.465"
         r="4" /><circle
         id="owl-pupil-l"
         cx="47.52"
         cy="52.465"
         r="2.4000001"
         style="fill:#000000;fill-rule:nonzero;stroke:none" /><circle
         id="owl-pupil-highlight-l"
         cx="47.922001"
         cy="52.862999"
         r="1.2"
         style="fill:#ffffff;stroke:none" /></g><rect
       style="fill:#000000;fill-opacity:1;stroke:#000000;stroke-width:0.604265;stroke-dasharray:none;stroke-opacity:1"
       id="rect2"
       width="9.3957348"
       height="0.39573479"
       x="52.634136"
       y="20.012133" /><rect
       style="fill:#000000;fill-opacity:1;stroke:#000000;stroke-width:0.604264;stroke-dasharray:none;stroke-opacity:1"
       id="rect2-1"
       width="9.3957357"
       height="0.39573559"
       x="69.472099"
       y="20.012133" /><rect
       style="fill:#ffffff;fill-opacity:1;stroke:#ffffff;stroke-width:0.84609;stroke-dasharray:none;stroke-opacity:1"
       id="rect3"
       width="5.1539106"
       height="1.1539105"
       x="54.639046"
       y="13.883045" /><rect
       style="fill:#ffffff;fill-opacity:1;stroke:#ffffff;stroke-width:0.84609;stroke-dasharray:none;stroke-opacity:1"
       id="rect3-3"
       width="5.1539106"
       height="1.1539105"
       x="71.423042"
       y="13.883045" /><rect
       style="fill:#ffffff;fill-opacity:1;stroke:#ffffff;stroke-width:1.38493;stroke-dasharray:none;stroke-opacity:1"
       id="rect4"
       width="5.6150689"
       height="3.6150692"
       x="54.246704"
       y="15.402465" /><rect
       style="fill:#ffffff;fill-opacity:1;stroke:#ffffff;stroke-width:1.38493;stroke-dasharray:none;stroke-opacity:1"
       id="rect4-6"
       width="5.6150689"
       height="3.6150692"
       x="71.282463"
       y="15.402465" /></g></svg>
